<mxfile host="app.diagrams.net" modified="2021-07-04T15:09:23.985Z" agent="5.0 (Macintosh; Intel Mac OS X 10_15_7) AppleWebKit/537.36 (KHTML, like Gecko) Chrome/91.0.4472.124 Safari/537.36" etag="re_swt6tZL4Zl4zASeVq" version="14.8.4" type="github">
  <diagram id="01eXjTYJ2d1SrXMeanzH" name="Page-1">
    <mxGraphModel dx="1376" dy="781" grid="1" gridSize="10" guides="1" tooltips="1" connect="1" arrows="1" fold="1" page="1" pageScale="1" pageWidth="1169" pageHeight="827" math="0" shadow="0">
      <root>
        <mxCell id="0" />
        <mxCell id="1" parent="0" />
        <mxCell id="A4gBskFatexQGphRCRpW-1" value="AWS Cloud" style="points=[[0,0],[0.25,0],[0.5,0],[0.75,0],[1,0],[1,0.25],[1,0.5],[1,0.75],[1,1],[0.75,1],[0.5,1],[0.25,1],[0,1],[0,0.75],[0,0.5],[0,0.25]];outlineConnect=0;gradientColor=none;html=1;whiteSpace=wrap;fontSize=12;fontStyle=0;shape=mxgraph.aws4.group;grIcon=mxgraph.aws4.group_aws_cloud_alt;strokeColor=#232F3E;fillColor=none;verticalAlign=top;align=left;spacingLeft=30;fontColor=#232F3E;dashed=0;" vertex="1" parent="1">
          <mxGeometry x="160" y="40" width="640" height="440" as="geometry" />
        </mxCell>
        <mxCell id="A4gBskFatexQGphRCRpW-28" value="" style="edgeStyle=orthogonalEdgeStyle;rounded=0;orthogonalLoop=1;jettySize=auto;html=1;" edge="1" parent="1" source="A4gBskFatexQGphRCRpW-2" target="A4gBskFatexQGphRCRpW-8">
          <mxGeometry relative="1" as="geometry" />
        </mxCell>
        <mxCell id="A4gBskFatexQGphRCRpW-34" value="Create Job" style="edgeLabel;html=1;align=center;verticalAlign=middle;resizable=0;points=[];" vertex="1" connectable="0" parent="A4gBskFatexQGphRCRpW-28">
          <mxGeometry x="-0.1472" relative="1" as="geometry">
            <mxPoint as="offset" />
          </mxGeometry>
        </mxCell>
        <mxCell id="A4gBskFatexQGphRCRpW-33" style="edgeStyle=orthogonalEdgeStyle;rounded=0;orthogonalLoop=1;jettySize=auto;html=1;" edge="1" parent="1" source="A4gBskFatexQGphRCRpW-2" target="A4gBskFatexQGphRCRpW-15">
          <mxGeometry relative="1" as="geometry" />
        </mxCell>
        <mxCell id="A4gBskFatexQGphRCRpW-35" value="Job Status" style="edgeLabel;html=1;align=center;verticalAlign=middle;resizable=0;points=[];" vertex="1" connectable="0" parent="A4gBskFatexQGphRCRpW-33">
          <mxGeometry x="-0.2148" relative="1" as="geometry">
            <mxPoint as="offset" />
          </mxGeometry>
        </mxCell>
        <mxCell id="A4gBskFatexQGphRCRpW-2" value="" style="points=[[0,0,0],[0.25,0,0],[0.5,0,0],[0.75,0,0],[1,0,0],[0,1,0],[0.25,1,0],[0.5,1,0],[0.75,1,0],[1,1,0],[0,0.25,0],[0,0.5,0],[0,0.75,0],[1,0.25,0],[1,0.5,0],[1,0.75,0]];outlineConnect=0;fontColor=#232F3E;gradientColor=#F34482;gradientDirection=north;fillColor=#BC1356;strokeColor=#ffffff;dashed=0;verticalLabelPosition=bottom;verticalAlign=top;align=center;html=1;fontSize=12;fontStyle=0;aspect=fixed;shape=mxgraph.aws4.resourceIcon;resIcon=mxgraph.aws4.api_gateway;" vertex="1" parent="1">
          <mxGeometry x="200" y="200" width="78" height="78" as="geometry" />
        </mxCell>
        <mxCell id="A4gBskFatexQGphRCRpW-27" style="edgeStyle=orthogonalEdgeStyle;rounded=0;orthogonalLoop=1;jettySize=auto;html=1;entryX=0;entryY=0.5;entryDx=0;entryDy=0;entryPerimeter=0;" edge="1" parent="1" source="A4gBskFatexQGphRCRpW-4" target="A4gBskFatexQGphRCRpW-2">
          <mxGeometry relative="1" as="geometry" />
        </mxCell>
        <mxCell id="A4gBskFatexQGphRCRpW-36" value="Create Job&lt;br&gt;Job Status" style="edgeLabel;html=1;align=center;verticalAlign=middle;resizable=0;points=[];" vertex="1" connectable="0" parent="A4gBskFatexQGphRCRpW-27">
          <mxGeometry x="0.14" y="2" relative="1" as="geometry">
            <mxPoint x="-8" as="offset" />
          </mxGeometry>
        </mxCell>
        <mxCell id="A4gBskFatexQGphRCRpW-4" value="" style="outlineConnect=0;fontColor=#232F3E;gradientColor=none;fillColor=#232F3E;strokeColor=none;dashed=0;verticalLabelPosition=bottom;verticalAlign=top;align=center;html=1;fontSize=12;fontStyle=0;aspect=fixed;pointerEvents=1;shape=mxgraph.aws4.client;" vertex="1" parent="1">
          <mxGeometry x="40" y="200" width="78" height="76" as="geometry" />
        </mxCell>
        <mxCell id="A4gBskFatexQGphRCRpW-7" value="Jobs" style="points=[[0,0,0],[0.25,0,0],[0.5,0,0],[0.75,0,0],[1,0,0],[0,1,0],[0.25,1,0],[0.5,1,0],[0.75,1,0],[1,1,0],[0,0.25,0],[0,0.5,0],[0,0.75,0],[1,0.25,0],[1,0.5,0],[1,0.75,0]];outlineConnect=0;fontColor=#232F3E;gradientColor=#4D72F3;gradientDirection=north;fillColor=#3334B9;strokeColor=#ffffff;dashed=0;verticalLabelPosition=bottom;verticalAlign=top;align=center;html=1;fontSize=12;fontStyle=0;aspect=fixed;shape=mxgraph.aws4.resourceIcon;resIcon=mxgraph.aws4.dynamodb;" vertex="1" parent="1">
          <mxGeometry x="360" y="360" width="78" height="78" as="geometry" />
        </mxCell>
        <mxCell id="A4gBskFatexQGphRCRpW-29" style="edgeStyle=orthogonalEdgeStyle;rounded=0;orthogonalLoop=1;jettySize=auto;html=1;" edge="1" parent="1" source="A4gBskFatexQGphRCRpW-8" target="A4gBskFatexQGphRCRpW-3">
          <mxGeometry relative="1" as="geometry" />
        </mxCell>
        <mxCell id="A4gBskFatexQGphRCRpW-30" value="Ref#" style="edgeLabel;html=1;align=center;verticalAlign=middle;resizable=0;points=[];" vertex="1" connectable="0" parent="A4gBskFatexQGphRCRpW-29">
          <mxGeometry x="-0.382" relative="1" as="geometry">
            <mxPoint as="offset" />
          </mxGeometry>
        </mxCell>
        <mxCell id="A4gBskFatexQGphRCRpW-31" style="edgeStyle=orthogonalEdgeStyle;rounded=0;orthogonalLoop=1;jettySize=auto;html=1;" edge="1" parent="1" source="A4gBskFatexQGphRCRpW-8" target="A4gBskFatexQGphRCRpW-7">
          <mxGeometry relative="1" as="geometry" />
        </mxCell>
        <mxCell id="A4gBskFatexQGphRCRpW-8" value="Create Job" style="points=[[0,0,0],[0.25,0,0],[0.5,0,0],[0.75,0,0],[1,0,0],[0,1,0],[0.25,1,0],[0.5,1,0],[0.75,1,0],[1,1,0],[0,0.25,0],[0,0.5,0],[0,0.75,0],[1,0.25,0],[1,0.5,0],[1,0.75,0]];outlineConnect=0;fontColor=#232F3E;gradientColor=#F78E04;gradientDirection=north;fillColor=#D05C17;strokeColor=#ffffff;dashed=0;verticalLabelPosition=bottom;verticalAlign=top;align=center;html=1;fontSize=12;fontStyle=0;aspect=fixed;shape=mxgraph.aws4.resourceIcon;resIcon=mxgraph.aws4.lambda;" vertex="1" parent="1">
          <mxGeometry x="360" y="200" width="78" height="78" as="geometry" />
        </mxCell>
        <mxCell id="A4gBskFatexQGphRCRpW-32" value="" style="edgeStyle=orthogonalEdgeStyle;rounded=0;orthogonalLoop=1;jettySize=auto;html=1;" edge="1" parent="1" source="A4gBskFatexQGphRCRpW-15" target="A4gBskFatexQGphRCRpW-7">
          <mxGeometry relative="1" as="geometry" />
        </mxCell>
        <mxCell id="A4gBskFatexQGphRCRpW-15" value="" style="points=[[0,0,0],[0.25,0,0],[0.5,0,0],[0.75,0,0],[1,0,0],[0,1,0],[0.25,1,0],[0.5,1,0],[0.75,1,0],[1,1,0],[0,0.25,0],[0,0.5,0],[0,0.75,0],[1,0.25,0],[1,0.5,0],[1,0.75,0]];outlineConnect=0;fontColor=#232F3E;gradientColor=#F78E04;gradientDirection=north;fillColor=#D05C17;strokeColor=#ffffff;dashed=0;verticalLabelPosition=bottom;verticalAlign=top;align=center;html=1;fontSize=12;fontStyle=0;aspect=fixed;shape=mxgraph.aws4.resourceIcon;resIcon=mxgraph.aws4.lambda;" vertex="1" parent="1">
          <mxGeometry x="200" y="360" width="78" height="78" as="geometry" />
        </mxCell>
        <mxCell id="A4gBskFatexQGphRCRpW-22" value="" style="group" vertex="1" connectable="0" parent="1">
          <mxGeometry x="520" y="98" width="240" height="282" as="geometry" />
        </mxCell>
        <mxCell id="A4gBskFatexQGphRCRpW-3" value="AWS Step Functions workflow" style="points=[[0,0],[0.25,0],[0.5,0],[0.75,0],[1,0],[1,0.25],[1,0.5],[1,0.75],[1,1],[0.75,1],[0.5,1],[0.25,1],[0,1],[0,0.75],[0,0.5],[0,0.25]];outlineConnect=0;gradientColor=none;html=1;whiteSpace=wrap;fontSize=12;fontStyle=0;shape=mxgraph.aws4.group;grIcon=mxgraph.aws4.group_aws_step_functions_workflow;strokeColor=#CD2264;fillColor=none;verticalAlign=top;align=left;spacingLeft=30;fontColor=#CD2264;dashed=0;" vertex="1" parent="A4gBskFatexQGphRCRpW-22">
          <mxGeometry width="240" height="282" as="geometry" />
        </mxCell>
        <mxCell id="A4gBskFatexQGphRCRpW-13" value="" style="group" vertex="1" connectable="0" parent="A4gBskFatexQGphRCRpW-22">
          <mxGeometry x="40" y="101" width="160" height="40" as="geometry" />
        </mxCell>
        <mxCell id="A4gBskFatexQGphRCRpW-10" value="Retrieve" style="rounded=0;whiteSpace=wrap;html=1;align=left;" vertex="1" parent="A4gBskFatexQGphRCRpW-13">
          <mxGeometry width="160" height="40" as="geometry" />
        </mxCell>
        <mxCell id="A4gBskFatexQGphRCRpW-9" value="" style="outlineConnect=0;fontColor=#232F3E;gradientColor=none;fillColor=#D05C17;strokeColor=none;dashed=0;verticalLabelPosition=bottom;verticalAlign=top;align=center;html=1;fontSize=12;fontStyle=0;aspect=fixed;pointerEvents=1;shape=mxgraph.aws4.lambda_function;" vertex="1" parent="A4gBskFatexQGphRCRpW-13">
          <mxGeometry x="125" y="5" width="30" height="30" as="geometry" />
        </mxCell>
        <mxCell id="A4gBskFatexQGphRCRpW-14" value="" style="group" vertex="1" connectable="0" parent="A4gBskFatexQGphRCRpW-22">
          <mxGeometry x="40" y="162" width="160" height="40" as="geometry" />
        </mxCell>
        <mxCell id="A4gBskFatexQGphRCRpW-12" value="Update Job Details" style="rounded=0;whiteSpace=wrap;html=1;align=left;" vertex="1" parent="A4gBskFatexQGphRCRpW-14">
          <mxGeometry width="160" height="40" as="geometry" />
        </mxCell>
        <mxCell id="A4gBskFatexQGphRCRpW-6" value="" style="points=[[0,0,0],[0.25,0,0],[0.5,0,0],[0.75,0,0],[1,0,0],[0,1,0],[0.25,1,0],[0.5,1,0],[0.75,1,0],[1,1,0],[0,0.25,0],[0,0.5,0],[0,0.75,0],[1,0.25,0],[1,0.5,0],[1,0.75,0]];outlineConnect=0;fontColor=#232F3E;gradientColor=#4D72F3;gradientDirection=north;fillColor=#3334B9;strokeColor=#ffffff;dashed=0;verticalLabelPosition=bottom;verticalAlign=top;align=center;html=1;fontSize=12;fontStyle=0;aspect=fixed;shape=mxgraph.aws4.resourceIcon;resIcon=mxgraph.aws4.dynamodb;" vertex="1" parent="A4gBskFatexQGphRCRpW-14">
          <mxGeometry x="125" y="5" width="30" height="30" as="geometry" />
        </mxCell>
        <mxCell id="A4gBskFatexQGphRCRpW-18" style="edgeStyle=orthogonalEdgeStyle;rounded=0;orthogonalLoop=1;jettySize=auto;html=1;entryX=0.5;entryY=0;entryDx=0;entryDy=0;" edge="1" parent="A4gBskFatexQGphRCRpW-22" source="A4gBskFatexQGphRCRpW-16" target="A4gBskFatexQGphRCRpW-10">
          <mxGeometry relative="1" as="geometry" />
        </mxCell>
        <mxCell id="A4gBskFatexQGphRCRpW-16" value="Start" style="ellipse;whiteSpace=wrap;html=1;aspect=fixed;fillColor=#CCCCCC;" vertex="1" parent="A4gBskFatexQGphRCRpW-22">
          <mxGeometry x="100" y="42" width="40" height="40" as="geometry" />
        </mxCell>
        <mxCell id="A4gBskFatexQGphRCRpW-19" value="" style="edgeStyle=orthogonalEdgeStyle;rounded=0;orthogonalLoop=1;jettySize=auto;html=1;" edge="1" parent="A4gBskFatexQGphRCRpW-22" source="A4gBskFatexQGphRCRpW-10" target="A4gBskFatexQGphRCRpW-12">
          <mxGeometry relative="1" as="geometry" />
        </mxCell>
        <mxCell id="A4gBskFatexQGphRCRpW-20" value="End" style="ellipse;whiteSpace=wrap;html=1;aspect=fixed;fillColor=#CCCCCC;" vertex="1" parent="A4gBskFatexQGphRCRpW-22">
          <mxGeometry x="100" y="222" width="40" height="40" as="geometry" />
        </mxCell>
        <mxCell id="A4gBskFatexQGphRCRpW-21" value="" style="edgeStyle=orthogonalEdgeStyle;rounded=0;orthogonalLoop=1;jettySize=auto;html=1;" edge="1" parent="A4gBskFatexQGphRCRpW-22" source="A4gBskFatexQGphRCRpW-12" target="A4gBskFatexQGphRCRpW-20">
          <mxGeometry relative="1" as="geometry" />
        </mxCell>
        <mxCell id="A4gBskFatexQGphRCRpW-26" style="edgeStyle=orthogonalEdgeStyle;rounded=0;orthogonalLoop=1;jettySize=auto;html=1;" edge="1" parent="1" source="A4gBskFatexQGphRCRpW-23" target="A4gBskFatexQGphRCRpW-24">
          <mxGeometry relative="1" as="geometry" />
        </mxCell>
        <mxCell id="A4gBskFatexQGphRCRpW-23" value="" style="outlineConnect=0;fontColor=#232F3E;gradientColor=none;fillColor=#232F3E;strokeColor=none;dashed=0;verticalLabelPosition=bottom;verticalAlign=top;align=center;html=1;fontSize=12;fontStyle=0;aspect=fixed;pointerEvents=1;shape=mxgraph.aws4.internet_alt2;" vertex="1" parent="1">
          <mxGeometry x="840" y="180" width="78" height="78" as="geometry" />
        </mxCell>
        <mxCell id="A4gBskFatexQGphRCRpW-24" value="JokeAPI" style="outlineConnect=0;fontColor=#232F3E;gradientColor=none;fillColor=#232F3E;strokeColor=none;dashed=0;verticalLabelPosition=bottom;verticalAlign=top;align=center;html=1;fontSize=12;fontStyle=0;aspect=fixed;pointerEvents=1;shape=mxgraph.aws4.traditional_server;" vertex="1" parent="1">
          <mxGeometry x="960" y="180" width="45" height="78" as="geometry" />
        </mxCell>
        <mxCell id="A4gBskFatexQGphRCRpW-25" style="edgeStyle=orthogonalEdgeStyle;rounded=0;orthogonalLoop=1;jettySize=auto;html=1;" edge="1" parent="1" source="A4gBskFatexQGphRCRpW-9" target="A4gBskFatexQGphRCRpW-23">
          <mxGeometry relative="1" as="geometry" />
        </mxCell>
      </root>
    </mxGraphModel>
  </diagram>
</mxfile>
